# xmcd
#
# Track frame offsets: 
#        150
#        14112
#        24399
#        52973
#
# Disc length: 917 seconds
#
# Revision: 0
# Processed by: cddbd v1.5.2PL0 Copyright (c) Steve Scherf et al.
# Submitted via: ExactAudioCopy v1.0b3
#
DISCID=2a039304
DTITLE=Willy Mason - Don't Stop NOw
DYEAR=2012
DGENRE=Country
TTITLE0=Talk Me Down
TTITLE1=I Got Gold
TTITLE2=Restless Fugitive
TTITLE3=Don't Stop Now
EXTD=
EXTT0=
EXTT1=
EXTT2=
EXTT3=
PLAYORDER=
